<svg xmlns="http://www.w3.org/2000/svg" width="12" height="15" viewbox="0 0 12 15"
    fill="currentcolor"
>
    <path
        d="M11.386 7.013a5.43 5.43 0 0 0-1.295-1.8l-.455-.417c-.015-.014-.034-.024-.054-.028s-.041-.005-.061 0-.039.015-.054.029-.027.031-.034.051l-.203.583c-.127.366-.359.739-.689 1.106-.022.023-.047.03-.064.031s-.044-.002-.067-.023-.033-.047-.031-.075c.058-.941-.223-2.002-.839-3.156-.509-.959-1.217-1.708-2.102-2.23l-.645-.38c-.084-.05-.192.016-.187.114l.034.75c.023.512-.036.966-.177 1.342-.172.461-.419.889-.734 1.273a4.62 4.62 0 0 1-.742.72 5.51 5.51 0 0 0-1.567 1.898c-.372.749-.565 1.574-.566 2.411a5.38 5.38 0 0 0 .433 2.125 5.46 5.46 0 0 0 1.18 1.733 5.49 5.49 0 0 0 1.748 1.167c.678.284 1.397.428 2.139.428s1.461-.144 2.139-.427c.653-.272 1.247-.668 1.748-1.167a5.41 5.41 0 0 0 1.18-1.733 5.38 5.38 0 0 0 .433-2.125 5.38 5.38 0 0 0-.467-2.202z"
    />
</svg>