<svg xmlns="http://www.w3.org/2000/svg" width="24" height="24" viewBox="0 0 24 24"
    fill="currentColor">
    <path
        d="M13.028 2.001l2.189.022.194.007.712.03c1.064.05 1.79.218 2.427.465.66.254 1.216.598 1.772 1.154a4.91 4.91 0 0 1 1.153 1.771c.247.637.415 1.364.465 2.428l.03.712.006.194.023 2.188.001.746v1.31l-.023 2.189-.006.194-.03.712c-.05 1.064-.22 1.79-.466 2.427-.25.668-.644 1.273-1.153 1.772-.5.508-1.105.902-1.772 1.153-.637.247-1.363.415-2.427.465l-.712.03-.194.006-2.189.023-.746.001h-1.309a78.69 78.69 0 0 1-2.189-.023l-.194-.006-.712-.03c-1.064-.05-1.79-.22-2.428-.466a4.89 4.89 0 0 1-1.771-1.153c-.509-.5-.903-1.104-1.154-1.772-.247-.637-.415-1.363-.465-2.427l-.03-.712-.005-.194L2 13.028v-2.056l.022-2.188.007-.194.03-.712c.05-1.065.218-1.79.465-2.428A4.88 4.88 0 0 1 3.68 3.68c.499-.509 1.103-.903 1.77-1.155.638-.247 1.363-.415 2.428-.465l.712-.03.194-.005L10.972 2l2.056.001zm-1.028 5A5 5 0 0 0 8.419 8.44a5 5 0 0 0-1.49 3.56 5 5 0 0 0 1.49 3.56A5 5 0 0 0 12 17a5 5 0 0 0 5-5 5 5 0 0 0-5-4.999zm0 2a3 3 0 0 1 2.157.859 3 3 0 0 1 .898 2.14 3 3 0 0 1-.898 2.141 3 3 0 0 1-2.157.859 3 3 0 0 1-3-3 3 3 0 0 1 3-3L12 9.001zm5.25-3.5a1.25 1.25 0 0 0-1.2 1.249 1.25 1.25 0 0 0 1.2 1.249 1.25 1.25 0 0 0 1.25-1.25 1.25 1.25 0 0 0-1.25-1.25v.002z"
    />
</svg>