<svg xmlns="http://www.w3.org/2000/svg" width="15" height="15" viewBox="0 0 15 15"
    fill="currentColor">
    <path
        d="M13.322 6.736L10.76 8.972l.768 3.329a.91.91 0 0 1-.351.942.91.91 0 0 1-1.004.043l-2.904-1.761-2.898 1.761a.91.91 0 0 1-1.004-.043.91.91 0 0 1-.351-.942l.766-3.326-2.563-2.24a.91.91 0 0 1-.271-.969.91.91 0 0 1 .788-.625l3.378-.293 1.319-3.145c.069-.165.185-.306.334-.405s.324-.152.502-.152.354.053.502.152.265.24.334.405L9.43 4.849l3.377.293a.91.91 0 0 1 .789.625.91.91 0 0 1-.271.969h-.003z"
    />
</svg>