<svg xmlns="http://www.w3.org/2000/svg" width="24" height="24" viewBox="0 0 24 24"
    fill="currentColor"
>
    <path
        d="M22.212 5.656c-.763.338-1.572.559-2.401.658.873-.523 1.526-1.345 1.838-2.314a8.36 8.36 0 0 1-2.655 1.015 4.18 4.18 0 0 0-5.029-.832 4.18 4.18 0 0 0-2.097 4.646c-1.663-.083-3.29-.515-4.775-1.268s-2.795-1.81-3.846-3.102a4.17 4.17 0 0 0-.566 2.103c0 1.45.739 2.731 1.86 3.481a4.17 4.17 0 0 1-1.894-.523v.051c0 .966.334 1.902.946 2.65s1.463 1.261 2.409 1.452c-.616.167-1.263.192-1.89.072.267.831.787 1.559 1.488 2.079s1.547.81 2.42.826c-.868.681-1.861 1.185-2.924 1.482s-2.173.382-3.268.25a11.83 11.83 0 0 0 6.41 1.88c7.694 0 11.9-6.373 11.9-11.9a12.17 12.17 0 0 0-.012-.541 8.5 8.5 0 0 0 2.086-2.165z" />
</svg>