<svg xmlns="http://www.w3.org/2000/svg" width="24" height="25" viewBox="0 0 24 25"
    fill="currentColor">
    <path
        d="M9.333 2.001c-.622-.015-1.24.095-1.819.322a4.66 4.66 0 0 0-1.551 1.003c-.445.434-.799.954-1.04 1.527s-.366 1.189-.366 1.811.124 1.238.366 1.811a4.68 4.68 0 0 0 1.04 1.527 4.67 4.67 0 0 0 1.551 1.004c.578.228 1.197.337 1.819.322.622.015 1.24-.095 1.819-.322a4.66 4.66 0 0 0 1.552-1.004 4.65 4.65 0 0 0 1.04-1.527c.241-.573.366-1.189.366-1.811s-.124-1.238-.366-1.811a4.68 4.68 0 0 0-1.04-1.527c-.445-.435-.973-.776-1.552-1.003s-1.197-.337-1.819-.322zM6.667 13.993c-1.238 0-2.425.492-3.3 1.367S2 17.422 2 18.66v3.329h14.667V18.66c0-1.238-.492-2.425-1.367-3.3s-2.062-1.367-3.3-1.367H6.667zm12 1.341H18v6.667h4v-3.333c0-.884-.351-1.732-.976-2.357s-1.473-.976-2.357-.976zm-1.334-7.999c-.884 0-1.732.351-2.357.976S14 9.784 14 10.668s.351 1.732.976 2.357 1.473.976 2.357.976 1.732-.351 2.357-.976.976-1.473.976-2.357-.351-1.732-.976-2.357-1.473-.976-2.357-.976z" />
</svg>